<?xml version="1.0" encoding="UTF-8"?><svg id="uuid-563066b1-7528-4b50-94c8-5dab3271a2c5" xmlns="http://www.w3.org/2000/svg" viewBox="0 0 119.06 119.06"><circle cx="59.27" cy="59.53" r="59.5" style="fill:#fff;"/><path d="m35.01,104.21s0,.03,0,.04c-.02-.01-.04-.03-.06-.04" style="fill:none; stroke:#2ea7e0; stroke-miterlimit:10; stroke-width:.5px;"/><path d="m57.59,104.72c0,2.19-1.77,3.97-3.96,3.97s-3.97-1.78-3.97-3.97,1.77-3.97,3.97-3.97,3.96,1.78,3.96,3.97Z" style="fill:#231815;"/><path d="m76.51,104.72c0,2.19-1.77,3.97-3.97,3.97s-3.96-1.78-3.96-3.97,1.77-3.97,3.96-3.97,3.97,1.78,3.97,3.97Z" style="fill:#231815;"/><path d="m35.2,98.31c-10.88-8.15-18.06-20.96-18.6-35.43-.03-.73-.04-1.45-.03-2.19.22-25.67,21.21-46.3,46.88-46.08" style="fill:none; stroke:#231815; stroke-linecap:round; stroke-miterlimit:10; stroke-width:11px;"/><path d="m73.92,91.5c-3.52-.87-7.2-1.35-10.98-1.38-4.34-.04-8.56.51-12.56,1.58-2.33-3.64-4.96-7.06-7.85-10.24-.05-.06-.11-.12-.16-.18-.25-.28-.51-.56-.77-.83h0c-2.76,5.61-4.86,11.62-6.18,17.92" style="fill:none; stroke:#231815; stroke-linecap:round; stroke-linejoin:round; stroke-width:11px;"/><path d="m74.76,91.7c2.33-3.64,4.96-7.06,7.85-10.24.05-.06.11-.12.16-.18.25-.28.51-.56.77-.83h0c2.76,5.61,4.86,11.62,6.18,17.92" style="fill:none; stroke:#231815; stroke-linecap:round; stroke-linejoin:round; stroke-width:11px;"/></svg>